<svg width="100" height="100" xmlns="http://www.w3.org/2000/svg">
 <title/>

 <g>
  <title>background</title>
  <rect fill="none" id="canvas_background" height="102" width="102" y="-1" x="-1"/>
 </g>
 <g>
  <title>Layer 1</title>
  <g id="Icons with numbers" fill-rule="evenodd" fill="none" stroke="null">
   <g id="Group" fill="#ff0000" stroke="null">
    <path stroke-width="2" fill="#eddcdc" id="Oval 208" d="m20.12232,37.43627c-0.08094,-0.97584 -0.12228,-1.96401 -0.12228,-2.96267c0,-17.99863 13.43146,-32.58937 29.99996,-32.58937c16.5685,0 29.99996,14.59074 29.99996,32.58937c0,0.99866 -0.04134,1.98683 -0.12228,2.96267l0.12228,0c0,17.81003 -29.99996,59.2534 -29.99996,59.2534c0,0 -29.99996,-41.34501 -29.99996,-59.2534l0.12228,0zm29.87768,5.92534c6.62741,0 11.99999,-5.30573 11.99999,-11.85068c0,-6.54495 -5.37258,-11.85068 -11.99999,-11.85068c-6.62741,0 -11.99998,5.30573 -11.99998,11.85068c0,6.54495 5.37257,11.85068 11.99998,11.85068zm0,0" stroke="#000000"/>
   </g>
  </g>
  <ellipse stroke="#000" ry="28.624927" rx="26.812436" id="svg_2" cy="33.791577" cx="49.999999" stroke-opacity="null" stroke-width="0" fill="#ef1515"/>
 </g>
</svg>